HIERARCHY
ROOT Hips
{
 OFFSET 0.000000 0.000000 0.000000
 CHANNELS 6 Xposition Yposition Zposition Yrotation Xrotation Zrotation
 JOINT Chest
 {
  OFFSET 0.000000 9.585900 0.002600
  CHANNELS 3 Yrotation Xrotation Zrotation
  JOINT Chest2
  {
   OFFSET 0.000000 9.601200 -0.005300
   CHANNELS 3 Yrotation Xrotation Zrotation
   JOINT Chest3
   {
    OFFSET 0.000000 9.561800 0.000000
    CHANNELS 3 Yrotation Xrotation Zrotation
    JOINT Chest4
    {
     OFFSET 0.000000 9.552100 0.000000
     CHANNELS 3 Yrotation Xrotation Zrotation
     JOINT Neck
     {
      OFFSET 0.000000 14.453000 0.000000
      CHANNELS 3 Yrotation Xrotation Zrotation
      JOINT Head
      {
       OFFSET 0.000000 8.936500 -0.011300
       CHANNELS 3 Yrotation Xrotation Zrotation
       End Site
       {
        OFFSET 0.000000 17.073600 -0.006000
       }
      }
     }
     JOINT RightCollar
     {
      OFFSET -2.921100 9.558500 0.000000
      CHANNELS 3 Yrotation Xrotation Zrotation
      JOINT RightShoulder
      {
       OFFSET -13.519700 0.000000 0.000000
       CHANNELS 3 Yrotation Xrotation Zrotation
       JOINT RightElbow
       {
        OFFSET 0.000000 -29.696600 0.000000
        CHANNELS 3 Yrotation Xrotation Zrotation
        JOINT RightWrist
        {
         OFFSET 0.000000 -24.004700 0.000000
         CHANNELS 3 Yrotation Xrotation Zrotation
         End Site
         {
          OFFSET 0.000000 -17.728500 0.000000
         }
        }
       }
      }
     }
     JOINT LeftCollar
     {
      OFFSET 2.921100 9.558500 0.000000
      CHANNELS 3 Yrotation Xrotation Zrotation
      JOINT LeftShoulder
      {
       OFFSET 13.519700 0.000000 0.000000
       CHANNELS 3 Yrotation Xrotation Zrotation
       JOINT LeftElbow
       {
        OFFSET 0.000000 -29.696600 0.000000
        CHANNELS 3 Yrotation Xrotation Zrotation
        JOINT LeftWrist
        {
         OFFSET 0.000000 -24.004700 0.000000
         CHANNELS 3 Yrotation Xrotation Zrotation
         End Site
         {
          OFFSET 0.000000 -17.728500 0.000000
         }
        }
       }
      }
     }
    }
   }
  }
 }
 JOINT RightHip
 {
  OFFSET -7.771700 -0.012900 -0.001300
  CHANNELS 3 Yrotation Xrotation Zrotation
  JOINT RightKnee
  {
   OFFSET 0.000000 -40.869800 0.001200
   CHANNELS 3 Yrotation Xrotation Zrotation
   JOINT RightAnkle
   {
    OFFSET 0.000000 -39.717900 0.002100
    CHANNELS 3 Yrotation Xrotation Zrotation
    JOINT RightToe
    {
     OFFSET 0.000000 -4.965400 11.033500
     CHANNELS 3 Yrotation Xrotation Zrotation
     End Site
     {
      OFFSET 0.000000 -1.423100 5.872300
     }
    }
   }
  }
 }
 JOINT LeftHip
 {
  OFFSET 7.771700 -0.012900 -0.001300
  CHANNELS 3 Yrotation Xrotation Zrotation
  JOINT LeftKnee
  {
   OFFSET 0.000000 -40.869800 0.001200
   CHANNELS 3 Yrotation Xrotation Zrotation
   JOINT LeftAnkle
   {
    OFFSET 0.000000 -39.717900 0.002100
    CHANNELS 3 Yrotation Xrotation Zrotation
    JOINT LeftToe
    {
     OFFSET 0.000000 -4.965400 11.033500
     CHANNELS 3 Yrotation Xrotation Zrotation
     End Site
     {
      OFFSET 0.000000 -1.423100 5.872300
     }
    }
   }
  }
 }
}
MOTION
Frames: 16
Frame Time: 0.008333
-71.152816 43.919066 17.769853 175.606463 -21.505917 0.987711 1.065843 18.816900 3.091529 0.058912 2.226321 0.421550 0.112250 3.672582 0.696387 0.849953 16.294871 3.222250 0.682465 15.459848 -4.642056 1.780864 -9.406870 -5.097360 9.972204 0.307420 -4.235244 -10.035120 -7.466292 -2.001755 -149.637676 -82.481265 154.600973 -6.395001 0.226322 -46.080465 -17.288741 -1.899179 -4.903008 15.003573 -5.247363 -0.225478 167.320045 -74.770075 -178.416437 17.285692 -0.587482 56.769314 4.294924 -70.534368 4.331159 -144.368629 64.421065 -141.578170 -6.888947 -28.020920 6.973883 0.298442 -0.945452 0.149045 3.746687 -59.382114 -5.523337 170.902657 62.662816 171.177742 2.269757 -35.995805 -0.357249 0.171621 0.493360 0.094152
-71.155916 43.916395 17.771002 175.604376 -21.497642 0.995719 1.069921 18.809517 3.084706 0.056845 2.225846 0.421581 0.117567 3.674074 0.695559 0.856630 16.294938 3.220411 0.681242 15.463266 -4.636114 1.778016 -9.405240 -5.088745 9.975967 0.299353 -4.231616 -10.029016 -7.459993 -2.012916 -149.747857 -82.462806 154.715132 -6.383367 0.225212 -46.066898 -17.280695 -1.905101 -4.900314 15.005620 -5.248796 -0.228827 167.201096 -74.755344 -178.331711 17.300463 -0.619339 56.829053 4.329663 -70.544203 4.299509 -144.331041 64.417369 -141.553606 -6.851373 -27.996245 6.961361 0.273619 -0.947524 0.148892 3.776839 -59.389819 -5.550553 170.903025 62.665679 171.182007 2.269561 -35.996009 -0.355492 0.171909 0.494728 0.093252
-71.157085 43.914065 17.772037 175.609138 -21.491378 0.990392 1.071590 18.803984 3.089766 0.061813 2.227156 0.421163 0.110681 3.672308 0.696106 0.871396 16.294990 3.217509 0.672038 15.464242 -4.628820 1.780326 -9.396435 -5.081713 9.971390 0.292726 -4.226519 -10.001943 -7.454007 -2.027610 -149.847287 -82.442363 154.803543 -6.386290 0.229831 -46.038452 -17.277715 -1.906099 -4.909599 14.997524 -5.255715 -0.219333 167.144852 -74.737837 -178.295796 17.291407 -0.648952 56.930951 4.347725 -70.555111 4.279658 -144.289744 64.407825 -141.514134 -6.801468 -27.957210 6.926350 0.251808 -0.966329 0.166547 3.780334 -59.398249 -5.554041 170.899208 62.667029 171.181441 2.272943 -35.995726 -0.355655 0.169845 0.494776 0.088522
-71.156939 43.912410 17.771959 175.616473 -21.492705 0.978689 1.080177 18.801948 3.105136 0.062122 2.227109 0.420836 0.111320 3.672351 0.695710 0.865655 16.296641 3.217082 0.671224 15.465909 -4.627942 1.782530 -9.391105 -5.081475 9.968313 0.291077 -4.224758 -9.993121 -7.452508 -2.030935 -149.958536 -82.422934 154.930205 -6.390253 0.241932 -45.997550 -17.282187 -1.907765 -4.915730 14.997752 -5.257338 -0.213086 167.147949 -74.733397 -178.302854 17.266386 -0.683111 57.043985 4.370891 -70.557025 4.270301 -144.261333 64.393700 -141.473585 -6.805637 -27.944650 6.921290 0.262505 -0.969290 0.180847 3.763006 -59.399166 -5.536793 170.901208 62.667413 171.183436 2.271572 -35.996273 -0.352475 0.167055 0.496540 0.087035
-71.159916 43.912110 17.768674 175.638845 -21.512955 0.984441 1.074257 18.815330 3.103838 0.060952 2.228300 0.419899 0.114160 3.670815 0.694172 0.850215 16.302229 3.214662 0.680123 15.469167 -4.633957 1.773948 -9.383309 -5.076078 9.970066 0.287521 -4.226375 -9.978440 -7.453812 -2.055958 -149.892157 -82.391619 154.868488 -6.391694 0.262740 -45.983300 -17.287569 -1.909648 -4.923538 14.993496 -5.260221 -0.220356 167.320570 -74.719182 -178.454592 17.242385 -0.684704 57.141871 4.411525 -70.537695 4.219591 -144.307322 64.387970 -141.519618 -6.827507 -27.955145 6.934425 0.262618 -0.951137 0.172249 3.765208 -59.378834 -5.562738 170.909138 62.669729 171.189062 2.270202 -35.990754 -0.348793 0.168697 0.492397 0.087227
-71.160806 43.911602 17.766096 175.652765 -21.528990 0.983883 1.065495 18.826950 3.101784 0.062708 2.226529 0.419128 0.114301 3.671156 0.693694 0.857543 16.301534 3.212937 0.670233 15.473793 -4.628527 1.771463 -9.380971 -5.075714 9.971932 0.276063 -4.223776 -9.992575 -7.441359 -2.062766 -149.900414 -82.366802 154.905287 -6.391357 0.285208 -46.001190 -17.301545 -1.902515 -4.925565 14.981506 -5.266500 -0.233140 167.592180 -74.700170 -178.694134 17.220135 -0.672828 57.223430 4.425475 -70.523500 4.203004 -144.349510 64.383414 -141.551716 -6.866177 -27.972037 6.939313 0.276479 -0.920631 0.160208 3.758411 -59.362778 -5.571322 170.921554 62.671506 171.199605 2.279686 -35.988135 -0.351070 0.162466 0.488297 0.082413
-71.160734 43.910557 17.764785 175.658351 -21.536952 0.983299 1.061558 18.833396 3.101068 0.069719 2.220210 0.417102 0.112252 3.673373 0.693246 0.858517 16.303456 3.213648 0.665935 15.476613 -4.625926 1.769887 -9.380193 -5.074154 9.975000 0.267507 -4.224517 -10.002269 -7.436319 -2.067208 -149.909323 -82.348055 154.945401 -6.398701 0.298223 -45.971096 -17.308231 -1.897647 -4.924556 14.970006 -5.266389 -0.252426 168.109316 -74.660487 -179.113934 17.293006 -0.617210 57.204875 4.428693 -70.516866 4.203272 -144.370021 64.379139 -141.567197 -6.892101 -27.999263 6.948419 0.291385 -0.896447 0.155628 3.752454 -59.354378 -5.569860 170.937769 62.672834 171.212339 2.285598 -35.989023 -0.350868 0.160944 0.488349 0.081595
-71.161189 43.908946 17.764647 175.655271 -21.537271 0.991029 1.068807 18.825463 3.094207 0.070176 2.221991 0.416607 0.112067 3.674506 0.692777 0.855431 16.303964 3.210845 0.661467 15.483168 -4.635391 1.766925 -9.384755 -5.063117 9.977234 0.264157 -4.223315 -10.002795 -7.438183 -2.070125 -149.893491 -82.338816 154.946640 -6.398124 0.277038 -45.907675 -17.313067 -1.896378 -4.922708 14.951114 -5.259565 -0.269972 168.426812 -74.643895 -179.364621 17.246791 -0.608902 57.224046 4.449259 -70.516353 4.190605 -144.395711 64.378927 -141.591380 -6.912243 -28.042752 6.961821 0.293532 -0.858966 0.147267 3.765024 -59.351781 -5.580934 170.950065 62.675958 171.221796 2.294837 -35.992858 -0.357972 0.156981 0.491754 0.085472
-71.163243 43.909003 17.759932 175.684202 -21.567713 1.000022 1.043017 18.849100 3.073720 0.067585 2.221547 0.417975 0.110145 3.678606 0.693156 0.858791 16.306299 3.204493 0.656497 15.487432 -4.634823 1.759915 -9.379441 -5.061943 9.974757 0.256484 -4.220165 -9.995452 -7.442095 -2.075160 -149.823855 -82.339661 154.872098 -6.392331 0.248817 -45.869226 -17.327040 -1.903871 -4.920485 14.930418 -5.233751 -0.310420 168.847097 -74.617658 -179.718909 17.203073 -0.600520 57.217476 4.469700 -70.483803 4.141454 -144.482479 64.377741 -141.672703 -6.945085 -28.093099 6.977594 0.297093 -0.843532 0.136751 3.769541 -59.320093 -5.613133 170.965171 62.679558 171.234393 2.291092 -35.987356 -0.358370 0.161362 0.486730 0.089496
-71.163686 43.908634 17.756275 175.706290 -21.593797 1.001562 1.025277 18.867370 3.065039 0.063005 2.225225 0.418524 0.111106 3.678989 0.692981 0.860077 16.297430 3.197321 0.651867 15.497863 -4.634313 1.756813 -9.357398 -5.079959 9.974122 0.258744 -4.214411 -9.989832 -7.440938 -2.079763 -149.888676 -82.326515 154.959557 -6.390458 0.240034 -45.879625 -17.331992 -1.892740 -4.916967 14.928315 -5.227591 -0.332565 169.030265 -74.609085 -179.881931 17.178103 -0.597939 57.204519 4.456922 -70.460090 4.145169 -144.500400 64.365560 -141.696615 -6.975602 -28.113780 6.993958 0.313531 -0.851379 0.137705 3.765333 -59.293670 -5.627962 170.972937 62.682214 171.242081 2.287984 -35.982141 -0.359972 0.164753 0.482753 0.091546
-71.164244 43.907008 17.755838 175.710396 -21.601511 1.007877 1.019497 18.867335 3.056594 0.062420 2.229283 0.418650 0.113112 3.668571 0.689003 0.859334 16.305173 3.197626 0.648010 15.495115 -4.638101 1.753889 -9.359259 -5.081572 9.976574 0.254319 -4.213110 -9.980331 -7.439146 -2.087529 -150.056540 -82.280917 155.179319 -6.393142 0.277505 -45.941537 -17.332752 -1.887167 -4.916160 14.930250 -5.228035 -0.354157 169.194508 -74.605759 179.967176 17.163507 -0.606166 57.187543 4.455213 -70.454923 4.147745 -144.488554 64.356240 -141.695576 -6.977242 -28.127280 7.005912 0.319306 -0.862318 0.135460 3.777545 -59.285914 -5.642534 170.972291 62.684414 171.242720 2.280976 -35.979292 -0.356354 0.163074 0.481879 0.088597
-71.165761 43.905079 17.756427 175.708435 -21.605413 1.019637 1.019138 18.859640 3.041869 0.064443 2.221110 0.416684 0.111987 3.677168 0.690873 0.857936 16.313920 3.200295 0.644336 15.484469 -4.644891 1.751617 -9.360264 -5.079644 9.980426 0.246679 -4.214066 -9.969019 -7.439584 -2.098749 -150.047206 -82.271920 155.170471 -6.388406 0.281545 -45.949412 -17.328964 -1.893862 -4.920204 14.933505 -5.226968 -0.366965 169.323287 -74.596804 179.854937 17.161602 -0.617889 57.165661 4.473491 -70.453239 4.130817 -144.476944 64.351550 -141.691511 -6.977244 -28.135428 7.013330 0.315993 -0.893628 0.134680 3.801503 -59.281237 -5.665074 170.966808 62.687076 171.239311 2.271839 -35.977165 -0.353106 0.164310 0.484084 0.083957
-71.167042 43.903085 17.757694 175.693209 -21.608491 1.031949 1.032150 18.854651 3.033532 0.064194 2.224937 0.417756 0.113348 3.675145 0.690204 0.854518 16.316252 3.195685 0.645223 15.474679 -4.647576 1.750810 -9.351709 -5.072493 9.988821 0.241448 -4.209765 -9.965384 -7.437643 -2.108033 -150.062141 -82.260722 155.187941 -6.373264 0.249835 -45.946427 -17.323947 -1.888668 -4.919874 14.940868 -5.239448 -0.378352 169.270266 -74.562392 179.906461 17.152704 -0.609834 57.169313 4.492061 -70.453426 4.127851 -144.428764 64.347222 -141.655022 -6.965734 -28.121110 7.014780 0.321040 -0.907416 0.135740 3.830276 -59.276988 -5.678532 170.958542 62.688896 171.233479 2.260525 -35.972836 -0.352552 0.169311 0.482672 0.085597
-71.166803 43.900314 17.761633 175.672098 -21.598684 1.033352 1.056597 18.834007 3.040792 0.062975 2.230627 0.417619 0.112733 3.677924 0.690205 0.862262 16.310455 3.191385 0.637547 15.469807 -4.648827 1.744575 -9.364191 -5.074869 9.984647 0.244065 -4.202579 -9.959718 -7.437475 -2.116678 -150.194541 -82.231869 155.334176 -6.373907 0.248574 -45.953665 -17.327167 -1.884499 -4.918141 14.944709 -5.246311 -0.384528 169.190128 -74.542346 179.967579 17.160375 -0.632824 57.198207 4.487648 -70.464989 4.157005 -144.344565 64.343057 -141.586716 -6.925168 -28.095694 7.006246 0.307880 -0.917456 0.137948 3.842622 -59.288320 -5.667445 170.954029 62.689125 171.230402 2.258956 -35.973123 -0.354132 0.167995 0.485437 0.085719
-71.167681 43.898669 17.763511 175.669395 -21.605325 1.032961 1.064799 18.833090 3.043382 0.063314 2.230613 0.417511 0.113307 3.677899 0.690175 0.864648 16.310309 3.191385 0.629763 15.471053 -4.648940 1.726904 -9.385649 -5.087813 9.980955 0.247922 -4.198938 -9.957596 -7.436672 -2.122462 -150.364517 -82.198406 155.526528 -6.381101 0.252637 -45.957681 -17.326892 -1.881542 -4.924259 14.938601 -5.247164 -0.379167 169.077982 -74.509612 -179.935958 17.149699 -0.628135 57.226752 4.487995 -70.458999 4.159115 -144.309224 64.342493 -141.556869 -6.900585 -28.067689 6.995249 0.293292 -0.931884 0.139451 3.840902 -59.282717 -5.662617 170.954982 62.690210 171.230912 2.258421 -35.976288 -0.357724 0.168043 0.490788 0.088516
-71.167852 43.898135 17.763515 175.674994 -21.627355 1.024080 1.066874 18.846315 3.049485 0.069011 2.224573 0.416062 0.109504 3.683520 0.691170 0.869447 16.310102 3.190207 0.621025 15.473735 -4.644091 1.722887 -9.384310 -5.086571 9.974292 0.250468 -4.189997 -9.960808 -7.434444 -2.126042 -150.580470 -82.163176 155.766054 -6.395331 0.276937 -45.970191 -17.328103 -1.878545 -4.925624 14.940261 -5.257587 -0.380006 168.969125 -74.489040 -179.851494 17.142434 -0.625361 57.257165 4.460465 -70.440789 4.183227 -144.274863 64.339076 -141.529998 -6.874310 -28.006118 6.971980 0.274249 -0.971415 0.150885 3.817323 -59.262823 -5.643314 170.962677 62.690319 171.236596 2.261923 -35.976123 -0.359721 0.165726 0.491028 0.084817
